<svg width="60" height="60" viewBox="0 0 60 60" fill="none" xmlns="http://www.w3.org/2000/svg">
<rect width="60" height="60" rx="15" fill="#D9D9D9"/>
<path d="M30.1053 5C33.6229 5 36.9964 6.36409 39.4837 8.7922C41.9711 11.2203 43.3684 14.5135 43.3684 17.9474V20.1053H52.2105V24.4211H49.6308L47.9575 44.0212C47.9115 44.5604 47.6596 45.0631 47.2518 45.4296C46.844 45.7961 46.3101 45.9997 45.7558 46H14.4547C13.9004 45.9997 13.3665 45.7961 12.9587 45.4296C12.5509 45.0631 12.2991 44.5604 12.2531 44.0212L10.5775 24.4211H8V20.1053H16.8421V17.9474C16.8421 14.5135 18.2395 11.2203 20.7268 8.7922C23.2141 6.36409 26.5877 5 30.1053 5ZM45.1943 24.4211H15.014L16.4884 41.6842H43.7199L45.1943 24.4211ZM32.3158 28.7368V37.3684H27.8947V28.7368H32.3158ZM23.4737 28.7368V37.3684H19.0526V28.7368H23.4737ZM41.1579 28.7368V37.3684H36.7368V28.7368H41.1579ZM30.1053 9.31579C27.8367 9.31579 25.655 10.1669 24.0113 11.6932C22.3675 13.2194 21.3876 15.304 21.2742 17.5158L21.2632 17.9474V20.1053H38.9474V17.9474C38.9474 15.7328 38.0755 13.603 36.512 11.9985C34.9485 10.3939 32.8131 9.43731 30.5474 9.32658L30.1053 9.31579Z" fill="#0086ED"/>
</svg>
