<svg width="40" height="34" viewBox="0 0 40 34" fill="none" xmlns="http://www.w3.org/2000/svg">
<path d="M20.2 28.812L20 28.9973L19.78 28.812C10.28 20.8262 4 15.5455 4 10.1907C4 6.48501 7 3.70572 11 3.70572C14.08 3.70572 17.08 5.55858 18.14 8.07847H21.86C22.92 5.55858 25.92 3.70572 29 3.70572C33 3.70572 36 6.48501 36 10.1907C36 15.5455 29.72 20.8262 20.2 28.812ZM29 0C25.52 0 22.18 1.50082 20 3.85395C17.82 1.50082 14.48 0 11 0C4.84 0 0 4.4654 0 10.1907C0 17.176 6.8 22.9014 17.1 31.5542L20 34L22.9 31.5542C33.2 22.9014 40 17.176 40 10.1907C40 4.4654 35.16 0 29 0Z" fill="#0086ED"/>
</svg>
