<svg width="25" height="25" viewBox="0 0 25 25" fill="none" xmlns="http://www.w3.org/2000/svg">
<g clip-path="url(#clip0_34_34)">
<path d="M12.5 25C19.4036 25 25 19.4036 25 12.5C25 5.59644 19.4036 0 12.5 0C5.59644 0 0 5.59644 0 12.5C0 19.4036 5.59644 25 12.5 25Z" fill="#48B254"/>
<path fill-rule="evenodd" clip-rule="evenodd" d="M17.7195 5.75625L18.4578 6.42656L9.13594 11.7484L4.62344 9.15078L5.04531 8.3125L9.13594 10.6383L17.7195 5.75547V5.75625ZM15.843 4.6875L16.8336 5.19063L9.13594 9.59062L5.55156 7.55781L6.1625 6.825L9.13594 8.52187L15.8438 4.6875H15.843ZM19.1117 7.11797L19.6594 7.85156L9.13594 13.8648L4.05391 10.9734L4.28594 10.0516L9.13594 12.8172L19.1117 7.11797ZM20.6297 9.82109C20.9391 10.6875 21.0938 11.5945 21.0938 12.5445C21.0938 13.4945 20.9391 14.4172 20.6297 15.3102L20.4188 15.8766C19.9856 16.8925 19.3631 17.8168 18.5844 18.6C17.7964 19.3737 16.8649 19.9859 15.8422 20.4023C14.7602 20.8633 13.643 21.0938 12.4898 21.0938C11.3227 21.0938 10.2047 20.8633 9.13594 20.4023C8.1254 19.9752 7.20299 19.364 6.41563 18.6C5.62799 17.8242 5.0042 16.898 4.58125 15.8766C4.13594 14.8219 3.90547 13.6891 3.90625 12.5445V11.9789L9.13594 14.9336L20.1656 8.64766L20.6297 9.82109Z" fill="white"/>
</g>
<defs>
<clipPath id="clip0_34_34">
<rect width="25" height="25" fill="white"/>
</clipPath>
</defs>
</svg>
