<svg width="70" height="25" viewBox="0 0 70 25" fill="none" xmlns="http://www.w3.org/2000/svg">
<g clip-path="url(#clip0_34_17)">
<path d="M36.2023 7.96014C36.1624 11.4288 39.0086 13.3644 41.1526 14.5153C43.3554 15.696 44.0954 16.4532 44.0866 17.5092C44.0702 19.1252 42.3295 19.8385 40.7006 19.8662C37.8588 19.9147 36.2064 19.021 34.8928 18.3451L33.8691 23.6219C35.187 24.2909 37.6275 24.8743 40.1581 24.8999C46.0986 24.8999 49.9849 21.6698 50.006 16.6616C50.0292 10.3056 42.0249 9.95382 42.0796 7.11285C42.0984 6.25141 42.8447 5.33213 44.4798 5.0984C45.2892 4.98032 47.5234 4.88996 50.0566 6.1749L51.0508 1.06948C49.6885 0.523096 47.9377 -9.91821e-05 45.7579 -9.91821e-05C40.1666 -9.91821e-05 36.234 3.274 36.2023 7.96014ZM60.6041 0.439661C59.5194 0.439661 58.6053 1.13665 58.1973 2.20623L49.7118 24.5249H55.6478L56.8291 20.9288H64.0828L64.768 24.5249H70L65.4344 0.439661H60.6041ZM61.4346 6.94599L63.1477 15.9903H58.456L61.4346 6.94599ZM29.0052 0.439962L24.3261 24.5246H29.9827L34.6596 0.43936H29.0052M20.6371 0.43936L14.7495 16.833L12.3679 2.89418C12.0884 1.33816 10.9848 0.439661 9.75926 0.439661H0.134805L0 1.13906C1.97586 1.61135 4.22078 2.37309 5.58086 3.18815C6.4132 3.68605 6.65055 4.12129 6.92398 5.30442L11.4349 24.5249H17.4125L26.577 0.439661H20.6371" fill="url(#paint0_linear_34_17)"/>
</g>
<defs>
<linearGradient id="paint0_linear_34_17" x1="32.1818" y1="25.3994" x2="32.9756" y2="-0.168937" gradientUnits="userSpaceOnUse">
<stop stop-color="#222357"/>
<stop offset="1" stop-color="#254AA5"/>
</linearGradient>
<clipPath id="clip0_34_17">
<rect width="70" height="25" fill="white"/>
</clipPath>
</defs>
</svg>
