<svg width="25" height="25" viewBox="0 0 25 25" fill="none" xmlns="http://www.w3.org/2000/svg">
<g clip-path="url(#clip0_34_31)">
<path d="M12.5 0C9.18555 0 6.00391 1.31777 3.66211 3.66113C1.3179 6.00542 0.000649355 9.18473 0 12.5C0 15.8139 1.31836 18.9955 3.66211 21.3389C6.00391 23.6822 9.18555 25 12.5 25C15.8145 25 18.9961 23.6822 21.3379 21.3389C23.6816 18.9955 25 15.8139 25 12.5C25 9.18613 23.6816 6.00449 21.3379 3.66113C18.9961 1.31777 15.8145 0 12.5 0Z" fill="url(#paint0_linear_34_31)"/>
<path d="M5.65819 12.368C9.30272 10.7805 11.7324 9.73386 12.9473 9.2282C16.4199 7.78425 17.1406 7.53347 17.6113 7.52498C17.7148 7.52332 17.9453 7.5489 18.0957 7.67048C18.2207 7.77302 18.2558 7.9117 18.2734 8.00906C18.289 8.10632 18.3105 8.328 18.293 8.50105C18.1055 10.4776 17.291 15.2741 16.8769 17.488C16.7031 18.4247 16.3574 18.7387 16.0234 18.7694C15.2969 18.8362 14.7461 18.2897 14.043 17.829C12.9433 17.1077 12.3223 16.6589 11.2539 15.9552C10.0195 15.1419 10.8203 14.6948 11.5234 13.9643C11.707 13.7731 14.9062 10.8639 14.9668 10.6001C14.9746 10.5671 14.9824 10.444 14.9082 10.3792C14.8359 10.3141 14.7285 10.3364 14.6504 10.354C14.5391 10.379 12.7832 11.5407 9.37694 13.8389C8.87889 14.1815 8.42772 14.3485 8.02147 14.3397C7.57616 14.3302 6.71678 14.0874 6.07811 13.88C5.29686 13.6255 4.67382 13.4909 4.7285 13.0587C4.75585 12.8337 5.06639 12.6034 5.65819 12.368Z" fill="white"/>
</g>
<defs>
<linearGradient id="paint0_linear_34_31" x1="12.5" y1="0" x2="12.5" y2="25" gradientUnits="userSpaceOnUse">
<stop stop-color="#2AABEE"/>
<stop offset="1" stop-color="#229ED9"/>
</linearGradient>
<clipPath id="clip0_34_31">
<rect width="25" height="25" fill="white"/>
</clipPath>
</defs>
</svg>
