<svg width="25" height="25" viewBox="0 0 25 25" fill="none" xmlns="http://www.w3.org/2000/svg">
<path d="M15.7011 2.08325H9.30939C3.47189 2.08325 2.08334 3.47179 2.08334 9.29888V15.6905C2.08334 21.527 3.46147 22.9166 9.29897 22.9166H15.6906C21.5271 22.9166 22.9167 21.5385 22.9167 15.701V9.30929C22.9167 3.47179 21.5386 2.08325 15.7011 2.08325ZM18.9021 16.9478H17.3823C16.8073 16.9478 16.6344 16.4822 15.6031 15.451C14.7031 14.5833 14.3229 14.4749 14.0948 14.4749C13.7802 14.4749 13.6938 14.5614 13.6938 14.9958V16.3624C13.6938 16.7322 13.574 16.9489 12.6083 16.9489C11.6712 16.8859 10.7624 16.6012 9.95688 16.1182C9.15134 15.6352 8.47206 14.9677 7.97501 14.1708C6.79498 12.702 5.97391 10.9782 5.57709 9.13638C5.57709 8.90825 5.66355 8.702 6.09793 8.702H7.61668C8.0073 8.702 8.14793 8.87596 8.30105 9.277C9.03855 11.4478 10.2969 13.3353 10.8073 13.3353C11.0031 13.3353 11.0886 13.2489 11.0886 12.7603V10.5249C11.024 9.50513 10.4823 9.41867 10.4823 9.04992C10.4893 8.95266 10.5338 8.86193 10.6066 8.79698C10.6793 8.73203 10.7745 8.69796 10.8719 8.702H13.2594C13.5854 8.702 13.6938 8.8645 13.6938 9.25513V12.2718C13.6938 12.5978 13.8344 12.7062 13.9323 12.7062C14.1281 12.7062 14.2792 12.5978 14.6375 12.2395C15.4072 11.3009 16.036 10.2552 16.5042 9.13534C16.552 9.00082 16.6426 8.88565 16.762 8.80741C16.8814 8.72917 17.0232 8.69215 17.1656 8.702H18.6854C19.1406 8.702 19.2375 8.93013 19.1406 9.25513C18.588 10.4931 17.9043 11.6682 17.1011 12.7603C16.9375 13.0103 16.8719 13.1405 17.1011 13.4333C17.2521 13.6614 17.7844 14.1062 18.1427 14.5291C18.6635 15.0485 19.0959 15.6495 19.4229 16.3083C19.5531 16.7312 19.3354 16.9489 18.9021 16.9489V16.9478Z" fill="#0071C2"/>
</svg>
