<svg width="75" height="76" viewBox="0 0 75 76" fill="none" xmlns="http://www.w3.org/2000/svg">
<path d="M28.8033 21.1172C31.6906 21.1172 34.0213 23.3391 34.0213 26.0917C34.0213 28.8443 31.6906 31.0663 28.8033 31.0663C25.916 31.0663 23.5853 28.8443 23.5853 26.0917C23.5853 23.3391 25.916 21.1172 28.8033 21.1172ZM46.1967 44.3318C49.0839 44.3318 51.4146 46.5538 51.4146 49.3064C51.4146 52.059 49.0839 54.281 46.1967 54.281C43.3094 54.281 40.9787 52.059 40.9787 49.3064C40.9787 46.5538 43.3094 44.3318 46.1967 44.3318ZM25.0116 54.281L20.1067 49.6049L49.9884 21.1172L54.8933 25.7933L25.0116 54.281ZM60.6331 7.35417L62.7551 20.1554L74.9652 26.0917L68.808 37.6991L75 49.3064L62.6855 55.2427L60.5635 68.044L47.0315 66.021L37.3956 75.2074L27.7249 65.8883L14.2973 68.0108L12.1405 55.1101L0 49.2069L6.19202 37.5996L0.0347866 26.0917L12.2449 20.0891L14.3669 7.4205L27.8293 9.50982L37.5 0.207367L47.1011 9.37717L60.6331 7.35417ZM65.6772 28.977L56.6327 24.4335L54.8933 14.8492L44.8052 16.2421L37.5 9.50982L30.1948 16.2421L20.1067 14.8492L18.3673 24.4335L9.32282 28.977L13.8451 37.6991L9.32282 46.4212L18.3673 50.9646L20.1067 60.549L30.1948 59.1561L37.5 65.8883L44.8052 59.1561L54.8933 60.549L56.6327 50.9646L65.6772 46.4212L61.1549 37.6991L65.6772 28.977Z" fill="#0086ED"/>
</svg>
