<svg width="70" height="76" viewBox="0 0 70 76" fill="none" xmlns="http://www.w3.org/2000/svg">
<path d="M35 0.207367L0 13.8437V34.2983C0 53.2187 14.9333 70.9119 35 75.2074C55.0667 70.9119 70 53.2187 70 34.2983V13.8437L35 0.207367ZM35 20.6619C40.4444 20.6619 45.8889 24.4119 45.8889 29.1846V34.2983C48.2222 34.2983 50.5556 36.3437 50.5556 38.7301V50.6619C50.5556 52.7074 48.2222 54.7528 45.5 54.7528H24.1111C21.7778 54.7528 19.4444 52.7074 19.4444 50.321V38.3892C19.4444 36.3437 21.7778 34.2983 24.1111 34.2983V29.1846C24.1111 24.4119 29.5556 20.6619 35 20.6619ZM35 24.7528C31.8889 24.7528 29.1667 26.4574 29.1667 29.1846V34.2983H40.8333V29.1846C40.8333 26.4574 38.1111 24.7528 35 24.7528Z" fill="#0086ED"/>
</svg>
