<svg width="75" height="76" viewBox="0 0 75 76" fill="none" xmlns="http://www.w3.org/2000/svg">
<path d="M23.702 60.9756L37.4992 52.2616L51.2963 61.0902L47.6828 44.5796L59.8374 33.5726L43.8502 32.082L37.4992 16.4887L31.1481 31.9674L15.1609 33.4579L27.3155 44.5796L23.702 60.9756ZM37.4992 63.0394L19.3219 74.5051C18.5189 75.0402 17.6794 75.2695 16.8034 75.193C15.9274 75.1166 15.1609 74.8109 14.5039 74.2758C13.8469 73.7407 13.3359 73.0727 12.9709 72.2716C12.6059 71.4675 12.5329 70.5686 12.7519 69.5749L17.5699 47.9047L1.47323 33.3432C0.743221 32.6553 0.287695 31.871 0.106653 30.9905C-0.0773092 30.113 -0.0232888 29.2538 0.268715 28.413C0.560718 27.5722 0.998723 26.8842 1.58273 26.3492C2.16674 25.8141 2.96975 25.4701 3.99176 25.3173L25.235 23.3681L33.4476 2.95914C33.8126 2.04188 34.3791 1.35394 35.1471 0.895309C35.9121 0.436681 36.6962 0.207367 37.4992 0.207367C38.3022 0.207367 39.0877 0.436681 39.8556 0.895309C40.6207 1.35394 41.1857 2.04188 41.5507 2.95914L49.7633 23.3681L71.0066 25.3173C72.0286 25.4701 72.8316 25.8141 73.4156 26.3492C73.9996 26.8842 74.4376 27.5722 74.7296 28.413C75.0216 29.2538 75.0771 30.113 74.8961 30.9905C74.7121 31.871 74.2551 32.6553 73.5251 33.3432L57.4284 47.9047L62.2465 69.5749C62.4655 70.5686 62.3925 71.4675 62.0275 72.2716C61.6625 73.0727 61.1515 73.7407 60.4945 74.2758C59.8374 74.8109 59.0709 75.1166 58.1949 75.193C57.3189 75.2695 56.4794 75.0402 55.6764 74.5051L37.4992 63.0394Z" fill="#0086ED"/>
</svg>
