<svg xmlns="http://www.w3.org/2000/svg" height="48" viewBox="0 96 960 960" width="48"><path d="m480 905.075-30.538-28.192q-102.175-93.735-169.238-161.559-67.064-67.823-106.658-120.168-39.595-52.344-55.041-94.672-15.447-42.327-15.447-84.868 0-81.374 54.883-136.264 54.883-54.889 135.655-54.889 55.202 0 102.851 28.154 47.648 28.154 83.533 82.154 40.461-55.731 86.303-83.02 45.842-27.288 100.211-27.288 80.647 0 135.527 54.813 54.881 54.814 54.881 136.074 0 42.786-15.447 85.124-15.446 42.338-54.983 94.578-39.537 52.239-106.729 120.189-67.191 67.95-169.225 161.642L480 905.075Zm0-57.999q99.126-91.122 163.436-155.918 64.311-64.795 102.11-113.554 37.8-48.758 52.665-86.687 14.866-37.93 14.866-75.13 0-63.748-41.666-105.614-41.666-41.865-104.556-41.865-51.77 0-94.159 30.538-42.388 30.539-75.004 90.347h-35.999Q429.308 330 386.57 299.154q-42.738-30.846-93.265-30.846-62.665 0-104.523 41.708-41.859 41.708-41.859 106.29 0 37.288 15.204 75.266 15.204 37.977 52.626 87.002t101.969 113.591Q381.269 756.73 480 847.076Zm0-289.73Z"/></svg>