<?xml version="1.0" standalone="no"?>
<!DOCTYPE svg PUBLIC "-//W3C//DTD SVG 20010904//EN"
 "http://www.w3.org/TR/2001/REC-SVG-20010904/DTD/svg10.dtd">
<svg version="1.0" xmlns="http://www.w3.org/2000/svg"
 width="32.000000pt" height="32.000000pt" viewBox="0 0 32.000000 32.000000"
 preserveAspectRatio="xMidYMid meet">

<g transform="translate(0.000000,32.000000) scale(0.100000,-0.100000)"
fill="#000000" stroke="none">
<path d="M49 289 c-32 -12 -54 -58 -44 -96 3 -15 40 -61 81 -102 l74 -76 74
76 c41 41 78 87 81 102 11 42 -11 84 -51 97 -30 10 -39 9 -69 -9 -35 -20 -35
-20 -68 -1 -36 22 -41 23 -78 9z m85 -40 l26 -20 26 20 c58 46 128 8 104 -55
-14 -36 -109 -134 -130 -134 -21 0 -116 98 -130 134 -24 63 46 101 104 55z"/>
</g>
</svg>
