<?xml version="1.0" standalone="no"?>
<!DOCTYPE svg PUBLIC "-//W3C//DTD SVG 20010904//EN"
 "http://www.w3.org/TR/2001/REC-SVG-20010904/DTD/svg10.dtd">
<svg version="1.0" xmlns="http://www.w3.org/2000/svg"
 width="32.000000pt" height="32.000000pt" viewBox="0 0 32.000000 32.000000"
 preserveAspectRatio="xMidYMid meet">

<g transform="translate(0.000000,32.000000) scale(0.100000,-0.100000)"
fill="#000000" stroke="none">
<path d="M95 306 c-101 -44 -125 -178 -46 -257 65 -65 157 -65 222 0 124 124
-15 327 -176 257z m112 -7 c67 -25 111 -99 98 -165 -8 -45 -57 -100 -101 -114
-100 -33 -209 62 -190 165 12 62 82 124 143 125 12 0 34 -5 50 -11z"/>
<path d="M126 241 c-33 -37 10 -94 53 -71 43 22 28 90 -19 90 -9 0 -25 -9 -34
-19z m54 -6 c19 -23 8 -50 -20 -50 -16 0 -26 6 -28 18 -4 18 14 47 28 47 4 0
13 -7 20 -15z"/>
<path d="M102 127 c-12 -13 -22 -32 -22 -43 1 -13 5 -9 15 13 25 58 105 58
130 0 11 -24 14 -27 15 -11 1 57 -96 86 -138 41z"/>
</g>
</svg>
