<?xml version="1.0" standalone="no"?>
<!DOCTYPE svg PUBLIC "-//W3C//DTD SVG 20010904//EN"
 "http://www.w3.org/TR/2001/REC-SVG-20010904/DTD/svg10.dtd">
<svg version="1.0" xmlns="http://www.w3.org/2000/svg"
 width="32.000000pt" height="32.000000pt" viewBox="0 0 32.000000 32.000000"
 preserveAspectRatio="xMidYMid meet">

<g transform="translate(0.000000,32.000000) scale(0.100000,-0.100000)"
fill="#000000" stroke="none">
<path d="M87 235 c-11 -22 -24 -35 -36 -35 -24 0 -36 -17 -23 -33 5 -7 15 -34
21 -62 7 -27 18 -53 24 -57 16 -10 158 -10 174 0 6 4 17 30 24 57 6 28 16 55
21 62 13 16 1 33 -23 33 -12 0 -25 13 -36 35 -9 19 -20 35 -25 35 -5 0 -2 -13
7 -30 8 -16 15 -31 15 -35 0 -3 -31 -5 -70 -5 -38 0 -70 2 -70 5 0 4 7 19 15
35 9 17 12 30 7 30 -5 0 -16 -16 -25 -35z m193 -55 c0 -6 -47 -10 -120 -10
-73 0 -120 4 -120 10 0 6 47 10 120 10 73 0 120 -4 120 -10z m-20 -44 c0 -14
-4 -36 -10 -50 -9 -25 -13 -26 -93 -26 l-84 0 -7 38 c-10 65 -15 62 94 62 99
0 100 0 100 -24z"/>
<path d="M101 128 c1 -7 5 -24 9 -38 7 -22 8 -21 9 13 1 20 -3 37 -9 37 -5 0
-10 -6 -9 -12z"/>
<path d="M150 110 c0 -16 5 -30 10 -30 6 0 10 14 10 30 0 17 -4 30 -10 30 -5
0 -10 -13 -10 -30z"/>
<path d="M201 103 c1 -34 2 -35 9 -13 11 36 11 50 0 50 -5 0 -10 -17 -9 -37z"/>
</g>
</svg>
